<?xml version="1.0" encoding="UTF-8"?>
<svg id="Layer_2" data-name="Layer 2" xmlns="http://www.w3.org/2000/svg" viewBox="0 0 1231.12 249.07">
  <defs>
    <style>
      .cls-1 {
        fill: #000;
      }

      .cls-1, .cls-2 {
        stroke-width: 0px;
      }

      .cls-2 {
        fill: #eb1000;
      }
    </style>
  </defs>
  <g id="Layer_1-2" data-name="Layer 1">
    <g>
      <path class="cls-2" d="M444.45,2.84h27.97l39.48,95.14h-29.54l-24.99-63.19-16.47,41.46h19.6l7.81,21.73h-63.76L444.45,2.84ZM544.84,22.58c2.84,0,5.96.28,9.09.99V0h24.71v93.72c-5.68,2.56-17.89,5.68-30.1,5.68-22.15,0-41.18-12.64-41.18-37.77s18.32-39.05,37.49-39.05ZM547.97,79.09c2.27,0,4.12-.43,5.96-.99v-34.51c-1.85-.71-3.69-.99-6.11-.99-8.09,0-15.62,5.96-15.62,18.6s7.67,17.89,15.76,17.89ZM622.66,22.58c20.59,0,38.06,13.92,38.06,38.34s-17.47,38.34-38.06,38.34-38.2-13.92-38.2-38.34,17.32-38.34,38.2-38.34ZM622.66,78.67c7.1,0,13.63-5.68,13.63-17.75s-6.53-17.75-13.63-17.75-13.49,5.68-13.49,17.75,6.11,17.75,13.49,17.75ZM666.68,0h24.85v23.57c2.98-.57,6.11-.99,9.23-.99,19.31,0,37.2,12.64,37.2,37.35,0,26.13-19.03,39.33-41.61,39.33-9.66,0-22.01-1.99-29.68-5.54V0ZM696.92,78.95c8.52,0,16.33-6.11,16.33-18.74,0-11.79-7.67-17.32-15.9-17.32-2.27,0-4.12.28-5.82.99v34.08c1.42.57,3.27.99,5.4.99ZM780.14,22.58c18.6,0,35.64,11.93,35.64,35.93,0,3.27-.14,6.39-.57,9.51h-46.29c2.56,8.38,9.94,12.35,19.17,12.35,7.53,0,14.48-1.85,22.29-5.25v18.89c-7.24,3.69-15.9,5.25-24.85,5.25-23.57,0-41.89-14.2-41.89-38.34s16.61-38.34,36.49-38.34ZM792.63,52.54c-1.28-8.09-6.67-11.36-12.21-11.36s-10.08,3.41-11.93,11.36h24.14Z"/>
      <path class="cls-1" d="M0,130.64h70.57v22.58H26.41v13.63h38.34v22.29H26.41v14.06h45.01v22.58H0v-95.14ZM113.88,172.39l11.22-20.73h25.56l-22.15,35.78,23.86,38.34h-28.26l-11.5-21.58-11.64,21.58h-26.27l22.72-36.64-23-37.49h28.26l11.22,20.73ZM186.3,150.38c21.16,0,40.19,10.51,40.19,37.63s-19.88,39.05-40.9,39.05c-1.85,0-3.83-.14-5.54-.28v21.16h-24.85v-91.87c7.38-2.84,20.16-5.68,31.1-5.68ZM186.44,207.04c8.24,0,15.19-5.11,15.19-18.6s-7.38-17.89-15.05-17.89c-2.27,0-4.54.14-6.53.71v34.93c1.56.57,4.4.85,6.39.85ZM301.75,186.59c0,3.41-.28,7.1-.71,9.94h-46.43c2.84,7.1,9.66,10.51,20.31,10.51,7.67,0,14.34-1.42,21.02-4.54l.28,19.74c-7.24,3.69-15.05,4.97-25.13,4.97-24.85,0-41.46-13.77-41.46-38.77,0-22.86,15.9-38.06,36.92-38.06s35.21,13.92,35.21,36.21ZM278.6,180.34c-.57-6.67-4.69-11.36-11.93-11.36s-11.36,3.69-12.92,11.36h24.85ZM338.53,150.38c5.82,0,10.51.71,12.64,1.42v19.31c-1.7-.43-4.97-.71-7.67-.71-5.25,0-8.24.43-10.93,1.42v53.96h-24.85v-69.15c8.95-3.98,17.89-6.25,30.81-6.25ZM380.27,136.89c0,6.82-4.83,11.5-12.92,11.5s-13.06-4.54-13.06-11.5,5.25-11.22,13.06-11.22,12.92,4.54,12.92,11.22ZM355,151.66h24.85v74.12h-24.85v-74.12ZM456.81,186.59c0,3.41-.28,7.1-.71,9.94h-46.43c2.84,7.1,9.66,10.51,20.31,10.51,7.67,0,14.34-1.42,21.02-4.54l.28,19.74c-7.24,3.69-15.05,4.97-25.13,4.97-24.85,0-41.46-13.77-41.46-38.77,0-22.86,15.9-38.06,36.92-38.06s35.22,13.92,35.22,36.21ZM433.66,180.34c-.57-6.67-4.69-11.36-11.93-11.36s-11.36,3.69-12.92,11.36h24.85ZM531.5,225.78h-24.85v-43.31c0-7.95-3.12-12.07-10.93-12.07-3.41,0-5.82.43-8.38,1.56v53.82h-24.85v-68.3c9.51-4.12,22.01-7.24,35.64-7.24,21.73,0,33.37,10.79,33.37,30.81v44.73ZM580.06,170.4c-10.37,0-18.32,6.25-18.32,18.18s7.81,18.18,18.46,18.18c6.53,0,10.79-.99,15.05-3.27v20.31c-5.25,2.41-11.36,3.41-19.03,3.41-23.57,0-39.48-15.19-39.48-38.48s18.18-38.34,40.04-38.34c7.53,0,13.49.71,18.46,3.12v20.45c-4.4-2.41-9.37-3.55-15.19-3.55ZM670.94,186.59c0,3.41-.28,7.1-.71,9.94h-46.43c2.84,7.1,9.66,10.51,20.31,10.51,7.67,0,14.34-1.42,21.02-4.54l.28,19.74c-7.24,3.69-15.05,4.97-25.13,4.97-24.85,0-41.46-13.77-41.46-38.77,0-22.86,15.9-38.06,36.92-38.06s35.22,13.92,35.22,36.21ZM647.8,180.34c-.57-6.67-4.69-11.36-11.93-11.36s-11.36,3.69-12.92,11.36h24.85ZM738.39,130.78l16.47,52.82,18.46-52.82h31.52l6.25,95h-26.27l-1.28-33.09c-.43-11.22-.85-21.73-.71-31.95l-20.02,62.34h-18.74l-17.75-61.91c0,10.79-.43,21.58-.99,32.38l-1.7,32.23h-24.57l7.67-95h31.67ZM848.72,227.2c-18.32,0-32.66-7.67-32.66-24.71s14.77-23.43,31.81-23.43c3.98,0,7.24.28,9.94.71v-.85c0-4.97-3.98-8.52-13.92-8.52-6.67,0-14.2,1.7-21.3,4.54l-.14-19.88c7.38-2.84,15.76-4.54,25.42-4.54,21.58,0,33.79,9.66,33.79,31.38v38.77c-9.23,4.26-19.74,6.53-32.94,6.53ZM850.29,209.45c3.12,0,5.54-.43,7.53-1.28v-12.21c-1.7-.57-3.98-.99-7.24-.99-6.39,0-10.93,1.85-10.93,6.96s4.4,7.53,10.65,7.53ZM958.63,225.78h-24.85v-43.31c0-7.95-3.12-12.07-10.93-12.07-3.41,0-5.82.43-8.38,1.56v53.82h-24.85v-68.3c9.51-4.12,22.01-7.24,35.64-7.24,21.73,0,33.37,10.79,33.37,30.81v44.73ZM996.4,227.2c-18.32,0-32.66-7.67-32.66-24.71s14.77-23.43,31.81-23.43c3.98,0,7.24.28,9.94.71v-.85c0-4.97-3.98-8.52-13.92-8.52-6.67,0-14.2,1.7-21.3,4.54l-.14-19.88c7.38-2.84,15.76-4.54,25.42-4.54,21.58,0,33.79,9.66,33.79,31.38v38.77c-9.23,4.26-19.74,6.53-32.94,6.53ZM997.96,209.45c3.12,0,5.54-.43,7.53-1.28v-12.21c-1.7-.57-3.98-.99-7.24-.99-6.39,0-10.93,1.85-10.93,6.96s4.4,7.53,10.65,7.53ZM1075.35,150.38c12.07,0,22.15,1.99,29.68,5.25v50.69c0,30.53-17.04,42.74-41.18,42.74-9.23,0-15.9-1.28-21.87-3.55v-20.87c5.96,2.84,13.21,4.26,20.31,4.12,8.8,0,14.48-2.41,16.76-8.66-1.99.43-4.4.71-7.24.71-19.74,0-37.35-10.22-37.35-33.94s19.88-36.49,40.9-36.49ZM1073.65,201.21c2.13,0,4.54-.28,6.53-.71v-29.39c-1.42-.43-4.26-.99-6.82-.99-6.96,0-14.06,3.55-14.06,15.48s6.96,15.48,14.34,15.62ZM1182.13,186.59c0,3.41-.28,7.1-.71,9.94h-46.43c2.84,7.1,9.66,10.51,20.31,10.51,7.67,0,14.34-1.42,21.02-4.54l.28,19.74c-7.24,3.69-15.05,4.97-25.13,4.97-24.85,0-41.46-13.77-41.46-38.77,0-22.86,15.9-38.06,36.92-38.06s35.22,13.92,35.22,36.21ZM1158.99,180.34c-.57-6.67-4.69-11.36-11.93-11.36s-11.36,3.69-12.92,11.36h24.85ZM1218.49,150.38c5.82,0,10.51.71,12.64,1.42v19.31c-1.7-.43-4.97-.71-7.67-.71-5.25,0-8.24.43-10.93,1.42v53.96h-24.85v-69.15c8.95-3.98,17.89-6.25,30.81-6.25Z"/>
    </g>
  </g>
</svg>